<svg width="207" height="43" viewBox="0 0 207 43" fill="none" xmlns="http://www.w3.org/2000/svg">
<rect width="10.4688" height="10.8658" transform="matrix(0.999976 0.00694553 0.013141 0.999914 0.570312 30.6963)" fill="white"/>
<rect width="10.4228" height="10.3314" transform="matrix(0.999976 0.00694553 0.013141 0.999914 0.136719 10.3301)" fill="#D9D9D9"/>
<path fill-rule="evenodd" clip-rule="evenodd" d="M10.4225 0.0723917L9.53674e-07 0L0.135765 10.3305L10.5576 10.4028L10.5576 10.403L20.9802 10.4754L20.9802 10.4752L31.4014 10.5476L31.4014 10.5477L20.9805 10.4753L21.1162 20.8058L31.5388 20.8782L31.5388 20.8781L31.5395 20.8781L31.6749 31.1794L31.6758 31.1794L31.8115 41.5099L42.2341 41.5823L42.0983 31.2518L42.0975 31.2518L41.9617 20.9214L41.9603 20.9214L41.8249 10.62L41.8239 10.62L41.6882 0.289677L31.2663 0.21729L31.2663 0.217166L20.8438 0.144774L20.8438 0.144897L10.4225 0.0725143L10.4225 0.0723917Z" fill="#F5F2F2"/>
<rect width="10.4228" height="10.3314" transform="matrix(0.999976 0.00694553 0.013141 0.999914 10.5586 10.4028)" fill="#D9D9D9"/>
<rect width="10.4228" height="10.3314" transform="matrix(0.999976 0.00694553 0.013141 0.999914 10.6953 20.7334)" fill="white"/>
<rect width="10.4427" height="10.3314" transform="matrix(0.999976 0.00694553 0.013141 0.999914 21.1172 20.8057)" fill="#D9D9D9"/>
<rect width="10.4532" height="10.3314" transform="matrix(0.999976 0.00694553 0.013141 0.999914 21.25 31.1069)" fill="#D9D9D9"/>
<path d="M206.323 29.504H200.215C200.183 29.1273 200.051 28.8026 199.819 28.5301C199.586 28.2576 199.286 28.0492 198.917 27.9049C198.556 27.7526 198.155 27.6765 197.714 27.6765C197.145 27.6765 196.656 27.7807 196.248 27.9891C195.839 28.1975 195.638 28.494 195.647 28.8788C195.638 29.1513 195.755 29.4038 195.995 29.6362C196.244 29.8687 196.721 30.049 197.426 30.1773L201.177 30.8506C203.069 31.1952 204.476 31.7764 205.397 32.5939C206.327 33.4035 206.796 34.4896 206.804 35.8522C206.796 37.1667 206.403 38.3089 205.626 39.2788C204.856 40.2406 203.802 40.9861 202.464 41.5151C201.133 42.0361 199.614 42.2966 197.907 42.2966C195.085 42.2966 192.877 41.7195 191.282 40.5653C189.695 39.411 188.809 37.8881 188.625 35.9965H195.214C195.302 36.5816 195.59 37.0345 196.079 37.3551C196.576 37.6677 197.202 37.824 197.955 37.824C198.564 37.824 199.065 37.7198 199.458 37.5114C199.859 37.303 200.063 37.0064 200.071 36.6217C200.063 36.269 199.887 35.9885 199.542 35.7801C199.205 35.5717 198.676 35.4033 197.955 35.2751L194.685 34.698C192.801 34.3693 191.39 33.7441 190.453 32.8224C189.515 31.9006 189.05 30.7143 189.058 29.2635C189.05 27.9811 189.386 26.895 190.068 26.0052C190.757 25.1075 191.739 24.4262 193.013 23.9613C194.296 23.4884 195.815 23.252 197.57 23.252C200.239 23.252 202.343 23.805 203.882 24.9111C205.429 26.0173 206.243 27.5482 206.323 29.504Z" fill="white"/>
<path d="M167.523 41.9603V17.3369H174.16V26.715H174.256C174.497 26.0898 174.85 25.5167 175.314 24.9957C175.779 24.4666 176.356 24.0458 177.046 23.7332C177.735 23.4126 178.537 23.2523 179.45 23.2523C180.669 23.2523 181.827 23.5769 182.925 24.2262C184.031 24.8754 184.929 25.8974 185.618 27.2921C186.316 28.6868 186.664 30.4982 186.664 32.7265C186.664 34.8586 186.332 36.626 185.666 38.0287C185.009 39.4314 184.127 40.4774 183.021 41.1668C181.923 41.8561 180.717 42.2008 179.402 42.2008C178.537 42.2008 177.763 42.0605 177.082 41.7799C176.409 41.4914 175.831 41.1026 175.351 40.6137C174.878 40.1167 174.513 39.5557 174.256 38.9305H174.112V41.9603H167.523ZM174.016 32.7265C174.016 33.6243 174.132 34.4017 174.365 35.059C174.605 35.7083 174.942 36.2132 175.375 36.5739C175.815 36.9266 176.34 37.1029 176.95 37.1029C177.559 37.1029 178.076 36.9306 178.501 36.586C178.933 36.2333 179.262 35.7323 179.486 35.0831C179.719 34.4258 179.835 33.6403 179.835 32.7265C179.835 31.8128 179.719 31.0313 179.486 30.382C179.262 29.7247 178.933 29.2238 178.501 28.8791C178.076 28.5264 177.559 28.3501 176.95 28.3501C176.34 28.3501 175.815 28.5264 175.375 28.8791C174.942 29.2238 174.605 29.7247 174.365 30.382C174.132 31.0313 174.016 31.8128 174.016 32.7265Z" fill="white"/>
<path d="M152.762 42.2485C151.583 42.2485 150.541 42.0561 149.636 41.6714C148.738 41.2786 148.032 40.6855 147.519 39.892C147.006 39.0984 146.75 38.0885 146.75 36.8621C146.75 35.8522 146.922 34.9905 147.267 34.2772C147.612 33.5558 148.093 32.9666 148.71 32.5098C149.327 32.0529 150.044 31.7042 150.862 31.4638C151.687 31.2233 152.577 31.067 153.531 30.9949C154.565 30.9147 155.395 30.8185 156.02 30.7063C156.653 30.5861 157.11 30.4217 157.39 30.2133C157.671 29.9969 157.811 29.7124 157.811 29.3597V29.3116C157.811 28.8307 157.627 28.462 157.258 28.2055C156.89 27.949 156.417 27.8207 155.839 27.8207C155.206 27.8207 154.689 27.961 154.289 28.2416C153.896 28.5141 153.659 28.9349 153.579 29.504H147.471C147.552 28.3818 147.908 27.3478 148.541 26.402C149.183 25.4482 150.116 24.6867 151.343 24.1176C152.569 23.5405 154.1 23.252 155.936 23.252C157.258 23.252 158.445 23.4083 159.495 23.7209C160.545 24.0254 161.438 24.4543 162.176 25.0073C162.913 25.5524 163.474 26.1936 163.859 26.931C164.252 27.6604 164.448 28.454 164.448 29.3116V41.9599H158.244V39.363H158.1C157.731 40.0523 157.282 40.6094 156.753 41.0342C156.232 41.459 155.635 41.7676 154.962 41.9599C154.297 42.1523 153.563 42.2485 152.762 42.2485ZM154.926 38.0645C155.431 38.0645 155.904 37.9603 156.344 37.7519C156.793 37.5435 157.158 37.2429 157.439 36.8501C157.719 36.4574 157.859 35.9804 157.859 35.4194V33.8804C157.683 33.9525 157.495 34.0207 157.294 34.0848C157.102 34.1489 156.894 34.209 156.669 34.2651C156.453 34.3213 156.22 34.3734 155.972 34.4214C155.731 34.4695 155.479 34.5136 155.214 34.5537C154.701 34.6339 154.28 34.7661 153.952 34.9505C153.631 35.1268 153.391 35.3472 153.23 35.6117C153.078 35.8682 153.002 36.1568 153.002 36.4774C153.002 36.9904 153.182 37.3831 153.543 37.6557C153.904 37.9282 154.365 38.0645 154.926 38.0645Z" fill="white"/>
<path d="M128.18 41.9603V17.3369H134.865V36.5739H144.82V41.9603H128.18Z" fill="white"/>
<path d="M108.156 42.2967C106.168 42.2967 104.393 41.9881 102.83 41.3709C101.275 40.7537 100.049 39.9161 99.151 38.8581C98.2613 37.8 97.8164 36.6057 97.8164 35.2752C97.8164 34.2572 98.0689 33.3274 98.5739 32.4858C99.0869 31.6442 99.7762 30.9468 100.642 30.3938C101.508 29.8327 102.473 29.472 103.539 29.3117V29.1193C102.137 28.8789 100.982 28.2577 100.077 27.2557C99.179 26.2458 98.7302 25.0555 98.7302 23.6849C98.7302 22.3944 99.139 21.2482 99.9565 20.2462C100.774 19.2363 101.892 18.4428 103.311 17.8657C104.73 17.2886 106.345 17 108.156 17C109.968 17 111.583 17.2926 113.002 17.8777C114.42 18.4548 115.539 19.2483 116.356 20.2583C117.174 21.2602 117.582 22.4024 117.582 23.6849C117.582 25.0635 117.126 26.2538 116.212 27.2557C115.298 28.2577 114.152 28.8789 112.773 29.1193V29.3117C113.831 29.472 114.793 29.8327 115.659 30.3938C116.524 30.9468 117.214 31.6442 117.727 32.4858C118.24 33.3274 118.496 34.2572 118.496 35.2752C118.496 36.6057 118.047 37.8 117.15 38.8581C116.26 39.9161 115.034 40.7537 113.471 41.3709C111.916 41.9881 110.144 42.2967 108.156 42.2967ZM108.156 37.6798C108.79 37.6798 109.351 37.5515 109.84 37.295C110.328 37.0386 110.713 36.6859 110.994 36.237C111.282 35.7801 111.427 35.2671 111.427 34.6981C111.427 34.129 111.282 33.624 110.994 33.1831C110.713 32.7423 110.328 32.3976 109.84 32.1491C109.351 31.8927 108.79 31.7644 108.156 31.7644C107.531 31.7644 106.97 31.8927 106.473 32.1491C105.984 32.3976 105.595 32.7423 105.307 33.1831C105.026 33.624 104.886 34.129 104.886 34.6981C104.886 35.2671 105.026 35.7761 105.307 36.225C105.595 36.6739 105.984 37.0305 106.473 37.295C106.97 37.5515 107.531 37.6798 108.156 37.6798ZM108.156 27.1475C108.717 27.1475 109.214 27.0313 109.647 26.7989C110.08 26.5664 110.421 26.2458 110.669 25.837C110.918 25.4282 111.042 24.9673 111.042 24.4543C111.042 23.9414 110.918 23.4885 110.669 23.0957C110.421 22.695 110.08 22.3824 109.647 22.1579C109.214 21.9255 108.717 21.8093 108.156 21.8093C107.603 21.8093 107.106 21.9255 106.665 22.1579C106.233 22.3824 105.892 22.695 105.643 23.0957C105.395 23.4885 105.271 23.9414 105.271 24.4543C105.271 24.9673 105.395 25.4282 105.643 25.837C105.892 26.2378 106.233 26.5584 106.665 26.7989C107.106 27.0313 107.603 27.1475 108.156 27.1475Z" fill="white"/>
<path d="M74.0938 38.1129V32.9189L84.0008 17.3369H88.7139V24.2622H86.0207L80.6824 32.7265V32.9189H95.3026V38.1129H74.0938ZM86.0688 41.9603V36.5258L86.2131 34.2655V17.3369H92.4651V41.9603H86.0688Z" fill="white"/>
<path d="M52.9731 41.96V37.1508L62.1588 29.5522C62.768 29.0472 63.289 28.5743 63.7218 28.1334C64.1626 27.6846 64.4993 27.2237 64.7317 26.7508C64.9722 26.2779 65.0924 25.7528 65.0924 25.1757C65.0924 24.5425 64.9562 24.0015 64.6836 23.5526C64.4191 23.1037 64.0504 22.7591 63.5775 22.5186C63.1046 22.2701 62.5596 22.1459 61.9424 22.1459C61.3252 22.1459 60.7801 22.2701 60.3072 22.5186C59.8423 22.7671 59.4816 23.1318 59.2251 23.6127C58.9686 24.0936 58.8404 24.6788 58.8404 25.3681H52.4922C52.4922 23.6368 52.8809 22.1459 53.6584 20.8955C54.4359 19.6451 55.534 18.6832 56.9528 18.0099C58.3715 17.3366 60.0347 17 61.9424 17C63.9142 17 65.6214 17.3166 67.0642 17.9498C68.515 18.575 69.6332 19.4567 70.4187 20.5949C71.2122 21.7331 71.609 23.0677 71.609 24.5986C71.609 25.5444 71.4126 26.4863 71.0198 27.4241C70.6271 28.3538 69.9217 29.3838 68.9038 30.514C67.8858 31.6442 66.439 32.9908 64.5634 34.5538L62.255 36.4775V36.6218H71.8735V41.96H52.9731Z" fill="white"/>
</svg>
